:SAMPLES-PER-SECOND 30
:FULLY-SPECIFIED
:DEGREES
208
root  20.319 24.1955 3.99886 28.9477 -9.1614 3.19718
RightUpLeg  -59.8323 -7.87687 -12.667
RightLeg  92.5609 -0.228268 -17.0614
RightFoot  -25.702 2.161 9.83011
RightToes  -32.7459 -0.16328 -0.270591
Spine  22.524 2.08418 0.0416016
Spine1  35.5807 7.06751 1.29037
HEad  4.82039 -14.3933 24.0784
LeftShoulder1  0 -2.42657e-020 -4.95415e-022
LeftArm  -9.14024 -39.3715 -103.479
LeftForeArm  19.0476 -31.0905 -6.09794
LeftHand  0.0501265 -5.83808 -1.35458
RightShoulder  0 2.42657e-020 1.07489e-018
RightArm  -46.4624 45.7537 75.9507
RightForeArm  76.4173 17.8811 3.1687
RightHand  -7.84535 21.6589 -39.0817
LeftUpLeg  -84.8056 -5.56961 18.8517
LeftLeg  81.4547 -3.89179 -17.4212
LeftFoot  -16.8612 0.581856 3.92431
LeftToes  -51.7954 2.01279e-006 2.21547e-008
209
root  20.7238 23.4346 4.18682 27.5906 -13.8742 6.48873
RightUpLeg  -63.7947 -7.27788 -13.2253
RightLeg  96.92 1.527 -23.3601
RightFoot  -30.6518 4.05129 15.0855
RightToes  -19.4485 -0.0784055 -0.172373
Spine  23.9557 2.53768 -2.38574
Spine1  37.0404 9.13376 -2.31713
HEad  4.05491 -16.2088 27.2419
LeftShoulder1  0 -2.42657e-020 -4.95415e-022
LeftArm  -7.50971 -42.7257 -104.658
LeftForeArm  21.3555 -27.9607 -5.3643
LeftHand  0.0860244 -5.54493 -2.14888
RightShoulder  0 2.42657e-020 1.07489e-018
RightArm  -60.8284 54.9122 73.1205
RightForeArm  72.6224 7.53757 1.26401
RightHand  -3.35703 20.8742 -17.7135
LeftUpLeg  -84.9122 -6.18281 15.7106
LeftLeg  84.9442 -2.3083 -14.7279
LeftFoot  -18.8594 0.599298 3.6073
LeftToes  -52.2845 2.01279e-006 2.21547e-008
210
root  20.7898 22.9013 4.23143 26.3313 -14.8836 7.82271
RightUpLeg  -65.1303 -9.07972 -10.3211
RightLeg  100.031 2.98783 -24.0908
RightFoot  -35.5782 5.44733 17.2454
RightToes  -10.9729 -0.0370504 -0.100586
Spine  24.4673 1.66088 -3.02579
Spine1  37.6694 7.56668 -3.11562
HEad  3.15602 -16.6369 29.0375
LeftShoulder1  0 -2.42657e-020 -4.95415e-022
LeftArm  -8.66611 -43.9549 -104.239
LeftForeArm  22.2612 -28.4955 -5.48645
LeftHand  0.118349 -5.6244 -2.78233
RightShoulder  0 2.42657e-020 1.07489e-018
RightArm  -68.5282 56.5763 75.0299
RightForeArm  68.5457 5.86634 0.977652
RightHand  0.189487 16.2352 1.6991
LeftUpLeg  -84.7575 -6.9626 14.8438
LeftLeg  86.6521 -1.69374 -13.5334
LeftFoot  -20.7238 0.657791 3.59633
LeftToes  -51.9739 2.01279e-006 2.21547e-008
211
root  20.569 22.5328 4.2635 24.3202 -15.0501 8.83885
RightUpLeg  -63.6016 -11.1477 -8.98574
RightLeg  104.119 3.63927 -18.2945
RightFoot  -36.1508 4.24881 13.3463
RightToes  -20.0259 -0.081603 -0.17703
Spine  24.4972 0.185443 -3.81199
Spine1  38.0584 4.60949 -4.15518
HEad  3.87174 -16.7055 31.4562
LeftShoulder1  0 -2.42657e-020 -4.95415e-022
LeftArm  -11.7901 -44.8818 -100.69
LeftForeArm  24.4509 -31.4054 -6.17461
LeftHand  0.188474 -6.69055 -3.59722
RightShoulder  0 2.42657e-020 1.07489e-018
RightArm  -64.9238 54.6479 81.503
RightForeArm  60.3654 6.10716 1.03971
RightHand  1.31485 19.9589 7.83478
LeftUpLeg  -83.3894 -7.70974 14.4981
LeftLeg  87.5886 -1.42338 -13.1622
LeftFoot  -21.7753 0.698595 3.63078
LeftToes  -52.6714 2.01279e-006 2.21547e-008
212
root  20.1211 22.3376 4.27624 21.7013 -15.7216 9.73052
RightUpLeg  -59.5551 -12.7229 -10.4093
RightLeg  107.86 4.17434 -15.493
RightFoot  -34.4783 3.4093 11.3346
RightToes  -21.9955 -0.0928598 -0.19267
Spine  24.454 -1.05724 -5.11338
Spine1  38.7917 1.82117 -5.31368
HEad  4.41234 -18.5135 34.5609
LeftShoulder1  0 -2.42657e-020 -4.95415e-022
LeftArm  -16.2657 -46.2478 -96.0731
LeftForeArm  24.9014 -35.8093 -7.30621
LeftHand  0.431966 -7.72056 -6.77109
RightShoulder  0 2.42657e-020 1.07489e-018
RightArm  -53.8289 49.4857 88.7811
RightForeArm  48.5311 10.5828 1.86512
RightHand  1.68351 24.0949 8.24842
LeftUpLeg  -80.6143 -7.73917 14.0706
LeftLeg  87.8503 -1.33773 -12.9414
LeftFoot  -22.2327 0.702628 3.57479
LeftToes  -53.754 2.01279e-006 2.21547e-008
213
root  19.4956 22.3617 4.0865 20.2682 -16.5204 9.68286
RightUpLeg  -55.614 -13.8304 -13.4895
RightLeg  109.213 4.88625 -16.502
RightFoot  -32.9619 3.41937 11.9
RightToes  -18.386 -0.0726454 -0.16372
Spine  23.4134 -1.81317 -5.88173
Spine1  38.0304 -0.594089 -5.59448
HEad  3.79712 -22.3264 37.4931
LeftShoulder1  0 -2.42657e-020 -4.95415e-022
LeftArm  -21.0224 -46.7362 -91.7502
LeftForeArm  25.3297 -40.8641 -8.77792
LeftHand  0.90629 -9.19039 -11.6186
RightShoulder  0 2.42657e-020 1.07489e-018
RightArm  -44.5354 41.0756 93.2047
RightForeArm  40.3792 18.109 3.29027
RightHand  0.640807 25.0176 3.25863
LeftUpLeg  -78.2158 -7.09651 15.1237
LeftLeg  86.9269 -1.54171 -12.8543
LeftFoot  -22.0487 0.66657 3.42046
LeftToes  -55.1286 2.01279e-006 2.21547e-008
